M48
; DRILL file {KiCad (6.0.2)} date Wed Nov  2 20:30:42 2022
; FORMAT={-:-/ absolute / metric / decimal}
; #@! TF.CreationDate,2022-11-02T20:30:42-05:00
; #@! TF.GenerationSoftware,Kicad,Pcbnew,(6.0.2)
; #@! TF.FileFunction,Plated,1,2,PTH
FMAT,2
METRIC
; #@! TA.AperFunction,Plated,PTH,ViaDrill
T1C0.300
; #@! TA.AperFunction,Plated,PTH,ViaDrill
T2C0.400
; #@! TA.AperFunction,Plated,PTH,ComponentDrill
T3C1.000
; #@! TA.AperFunction,Plated,PTH,ComponentDrill
T4C1.600
%
G90
G05
T1
X139.834Y-114.186
X140.431Y-94.073
X141.881Y-114.067
X141.892Y-94.257
X141.905Y-102.178
X141.993Y-79.322
X142.106Y-89.796
X142.546Y-112.967
X142.621Y-107.612
X142.683Y-94.081
X142.905Y-105.295
X142.922Y-99.684
X142.98Y-118.12
X143.206Y-108.037
X143.405Y-102.205
X143.405Y-114.362
X143.713Y-117.433
X143.772Y-112.214
X144.01Y-97.781
X144.316Y-99.108
X144.474Y-119.54
X144.52Y-105.35
X145.018Y-109.362
X145.114Y-97.249
X145.136Y-94.263
X145.168Y-110.092
X145.333Y-108.186
X145.95Y-107.614
X146.122Y-106.439
X146.583Y-98.347
X146.879Y-94.072
X147.349Y-99.718
X147.547Y-113.346
X148.179Y-108.276
X148.234Y-94.267
X148.388Y-90.878
X148.456Y-112.925
X148.793Y-105.492
X148.938Y-113.913
X148.986Y-111.787
X149.133Y-121.895
X149.798Y-90.639
X150.527Y-98.227
X150.589Y-73.947
X150.674Y-121.662
X151.367Y-76.507
X152.011Y-116.27
X152.605Y-120.022
X152.622Y-121.212
X153.235Y-121.662
X153.935Y-121.662
X153.943Y-90.462
X154.114Y-117.524
X154.276Y-112.662
X154.46Y-95.616
X155.039Y-117.542
X155.849Y-90.89
X155.911Y-117.524
X156.614Y-115.304
X156.75Y-122.977
X157.504Y-94.516
X158.331Y-94.39
X159.192Y-117.859
X159.614Y-122.989
X160.066Y-115.312
X160.614Y-117.538
X160.709Y-122.773
X161.953Y-94.094
T2
X138.547Y-122.737
X145.769Y-122.279
X146.72Y-96.749
X150.48Y-77.128
X151.079Y-95.166
X152.872Y-89.989
X157.709Y-99.154
X158.114Y-113.505
X162.039Y-122.842
X163.114Y-95.425
T3
X149.447Y-71.651
X152.509Y-71.653
T4
X156.999Y-78.441
X156.999Y-88.375
T0
M30
