%TF.GenerationSoftware,KiCad,Pcbnew,(6.0.2)*%
%TF.CreationDate,2022-11-02T20:30:41-05:00*%
%TF.ProjectId,REF1845B,52454631-3834-4354-922e-6b696361645f,rev?*%
%TF.SameCoordinates,Original*%
%TF.FileFunction,Legend,Top*%
%TF.FilePolarity,Positive*%
%FSLAX46Y46*%
G04 Gerber Fmt 4.6, Leading zero omitted, Abs format (unit mm)*
G04 Created by KiCad (PCBNEW (6.0.2)) date 2022-11-02 20:30:41*
%MOMM*%
%LPD*%
G01*
G04 APERTURE LIST*
%ADD10C,0.100000*%
%ADD11C,0.150000*%
G04 APERTURE END LIST*
D10*
X140551857Y-98730857D02*
X140516142Y-98766571D01*
X140409000Y-98802285D01*
X140337571Y-98802285D01*
X140230428Y-98766571D01*
X140159000Y-98695142D01*
X140123285Y-98623714D01*
X140087571Y-98480857D01*
X140087571Y-98373714D01*
X140123285Y-98230857D01*
X140159000Y-98159428D01*
X140230428Y-98088000D01*
X140337571Y-98052285D01*
X140409000Y-98052285D01*
X140516142Y-98088000D01*
X140551857Y-98123714D01*
X141016142Y-98445142D02*
X141016142Y-98802285D01*
X140766142Y-98052285D02*
X141016142Y-98445142D01*
X141266142Y-98052285D01*
X141444714Y-98052285D02*
X141944714Y-98052285D01*
X141623285Y-98802285D01*
X142659000Y-98730857D02*
X142623285Y-98766571D01*
X142516142Y-98802285D01*
X142444714Y-98802285D01*
X142337571Y-98766571D01*
X142266142Y-98695142D01*
X142230428Y-98623714D01*
X142194714Y-98480857D01*
X142194714Y-98373714D01*
X142230428Y-98230857D01*
X142266142Y-98159428D01*
X142337571Y-98088000D01*
X142444714Y-98052285D01*
X142516142Y-98052285D01*
X142623285Y-98088000D01*
X142659000Y-98123714D01*
X143301857Y-98052285D02*
X143159000Y-98052285D01*
X143087571Y-98088000D01*
X143051857Y-98123714D01*
X142980428Y-98230857D01*
X142944714Y-98373714D01*
X142944714Y-98659428D01*
X142980428Y-98730857D01*
X143016142Y-98766571D01*
X143087571Y-98802285D01*
X143230428Y-98802285D01*
X143301857Y-98766571D01*
X143337571Y-98730857D01*
X143373285Y-98659428D01*
X143373285Y-98480857D01*
X143337571Y-98409428D01*
X143301857Y-98373714D01*
X143230428Y-98338000D01*
X143087571Y-98338000D01*
X143016142Y-98373714D01*
X142980428Y-98409428D01*
X142944714Y-98480857D01*
X143623285Y-98052285D02*
X144087571Y-98052285D01*
X143837571Y-98338000D01*
X143944714Y-98338000D01*
X144016142Y-98373714D01*
X144051857Y-98409428D01*
X144087571Y-98480857D01*
X144087571Y-98659428D01*
X144051857Y-98730857D01*
X144016142Y-98766571D01*
X143944714Y-98802285D01*
X143730428Y-98802285D01*
X143659000Y-98766571D01*
X143623285Y-98730857D01*
X144337571Y-98052285D02*
X144837571Y-98052285D01*
X144516142Y-98802285D01*
X145444714Y-98302285D02*
X145444714Y-98802285D01*
X145266142Y-98016571D02*
X145087571Y-98552285D01*
X145551857Y-98552285D01*
X145766142Y-98052285D02*
X146230428Y-98052285D01*
X145980428Y-98338000D01*
X146087571Y-98338000D01*
X146159000Y-98373714D01*
X146194714Y-98409428D01*
X146230428Y-98480857D01*
X146230428Y-98659428D01*
X146194714Y-98730857D01*
X146159000Y-98766571D01*
X146087571Y-98802285D01*
X145873285Y-98802285D01*
X145801857Y-98766571D01*
X145766142Y-98730857D01*
X139472285Y-98377535D02*
X139043714Y-98377535D01*
X139258000Y-98377535D02*
X139258000Y-97627535D01*
X139186571Y-97734678D01*
X139115142Y-97806107D01*
X139043714Y-97841821D01*
X139258000Y-99835035D02*
X139258000Y-98763607D01*
D11*
X143014523Y-109642380D02*
X143014523Y-108642380D01*
X143585952Y-109642380D01*
X143585952Y-108642380D01*
X144062142Y-109642380D02*
X144062142Y-108642380D01*
X144300238Y-108642380D01*
X144443095Y-108690000D01*
X144538333Y-108785238D01*
X144585952Y-108880476D01*
X144633571Y-109070952D01*
X144633571Y-109213809D01*
X144585952Y-109404285D01*
X144538333Y-109499523D01*
X144443095Y-109594761D01*
X144300238Y-109642380D01*
X144062142Y-109642380D01*
X145014523Y-109594761D02*
X145157380Y-109642380D01*
X145395476Y-109642380D01*
X145490714Y-109594761D01*
X145538333Y-109547142D01*
X145585952Y-109451904D01*
X145585952Y-109356666D01*
X145538333Y-109261428D01*
X145490714Y-109213809D01*
X145395476Y-109166190D01*
X145205000Y-109118571D01*
X145109761Y-109070952D01*
X145062142Y-109023333D01*
X145014523Y-108928095D01*
X145014523Y-108832857D01*
X145062142Y-108737619D01*
X145109761Y-108690000D01*
X145205000Y-108642380D01*
X145443095Y-108642380D01*
X145585952Y-108690000D01*
X145966904Y-109356666D02*
X146443095Y-109356666D01*
X145871666Y-109642380D02*
X146205000Y-108642380D01*
X146538333Y-109642380D01*
X147443095Y-109642380D02*
X147109761Y-109166190D01*
X146871666Y-109642380D02*
X146871666Y-108642380D01*
X147252619Y-108642380D01*
X147347857Y-108690000D01*
X147395476Y-108737619D01*
X147443095Y-108832857D01*
X147443095Y-108975714D01*
X147395476Y-109070952D01*
X147347857Y-109118571D01*
X147252619Y-109166190D01*
X146871666Y-109166190D01*
X141228809Y-110252380D02*
X141324047Y-110252380D01*
X141419285Y-110300000D01*
X141466904Y-110347619D01*
X141514523Y-110442857D01*
X141562142Y-110633333D01*
X141562142Y-110871428D01*
X141514523Y-111061904D01*
X141466904Y-111157142D01*
X141419285Y-111204761D01*
X141324047Y-111252380D01*
X141228809Y-111252380D01*
X141133571Y-111204761D01*
X141085952Y-111157142D01*
X141038333Y-111061904D01*
X140990714Y-110871428D01*
X140990714Y-110633333D01*
X141038333Y-110442857D01*
X141085952Y-110347619D01*
X141133571Y-110300000D01*
X141228809Y-110252380D01*
X142133571Y-110680952D02*
X142038333Y-110633333D01*
X141990714Y-110585714D01*
X141943095Y-110490476D01*
X141943095Y-110442857D01*
X141990714Y-110347619D01*
X142038333Y-110300000D01*
X142133571Y-110252380D01*
X142324047Y-110252380D01*
X142419285Y-110300000D01*
X142466904Y-110347619D01*
X142514523Y-110442857D01*
X142514523Y-110490476D01*
X142466904Y-110585714D01*
X142419285Y-110633333D01*
X142324047Y-110680952D01*
X142133571Y-110680952D01*
X142038333Y-110728571D01*
X141990714Y-110776190D01*
X141943095Y-110871428D01*
X141943095Y-111061904D01*
X141990714Y-111157142D01*
X142038333Y-111204761D01*
X142133571Y-111252380D01*
X142324047Y-111252380D01*
X142419285Y-111204761D01*
X142466904Y-111157142D01*
X142514523Y-111061904D01*
X142514523Y-110871428D01*
X142466904Y-110776190D01*
X142419285Y-110728571D01*
X142324047Y-110680952D01*
X142847857Y-110252380D02*
X143466904Y-110252380D01*
X143133571Y-110633333D01*
X143276428Y-110633333D01*
X143371666Y-110680952D01*
X143419285Y-110728571D01*
X143466904Y-110823809D01*
X143466904Y-111061904D01*
X143419285Y-111157142D01*
X143371666Y-111204761D01*
X143276428Y-111252380D01*
X142990714Y-111252380D01*
X142895476Y-111204761D01*
X142847857Y-111157142D01*
X143847857Y-110347619D02*
X143895476Y-110300000D01*
X143990714Y-110252380D01*
X144228809Y-110252380D01*
X144324047Y-110300000D01*
X144371666Y-110347619D01*
X144419285Y-110442857D01*
X144419285Y-110538095D01*
X144371666Y-110680952D01*
X143800238Y-111252380D01*
X144419285Y-111252380D01*
X144847857Y-111252380D02*
X144847857Y-110252380D01*
X145181190Y-110966666D01*
X145514523Y-110252380D01*
X145514523Y-111252380D01*
X145990714Y-111252380D02*
X145990714Y-110252380D01*
X146371666Y-110252380D01*
X146466904Y-110300000D01*
X146514523Y-110347619D01*
X146562142Y-110442857D01*
X146562142Y-110585714D01*
X146514523Y-110680952D01*
X146466904Y-110728571D01*
X146371666Y-110776190D01*
X145990714Y-110776190D01*
X146943095Y-110347619D02*
X146990714Y-110300000D01*
X147085952Y-110252380D01*
X147324047Y-110252380D01*
X147419285Y-110300000D01*
X147466904Y-110347619D01*
X147514523Y-110442857D01*
X147514523Y-110538095D01*
X147466904Y-110680952D01*
X146895476Y-111252380D01*
X147514523Y-111252380D01*
X148133571Y-110252380D02*
X148228809Y-110252380D01*
X148324047Y-110300000D01*
X148371666Y-110347619D01*
X148419285Y-110442857D01*
X148466904Y-110633333D01*
X148466904Y-110871428D01*
X148419285Y-111061904D01*
X148371666Y-111157142D01*
X148324047Y-111204761D01*
X148228809Y-111252380D01*
X148133571Y-111252380D01*
X148038333Y-111204761D01*
X147990714Y-111157142D01*
X147943095Y-111061904D01*
X147895476Y-110871428D01*
X147895476Y-110633333D01*
X147943095Y-110442857D01*
X147990714Y-110347619D01*
X148038333Y-110300000D01*
X148133571Y-110252380D01*
X149419285Y-111252380D02*
X148847857Y-111252380D01*
X149133571Y-111252380D02*
X149133571Y-110252380D01*
X149038333Y-110395238D01*
X148943095Y-110490476D01*
X148847857Y-110538095D01*
D10*
X141596285Y-112961535D02*
X141167714Y-112961535D01*
X141382000Y-112961535D02*
X141382000Y-112211535D01*
X141310571Y-112318678D01*
X141239142Y-112390107D01*
X141167714Y-112425821D01*
X141382000Y-114419035D02*
X141382000Y-113347607D01*
D11*
X152907714Y-113505380D02*
X152336285Y-113505380D01*
X152622000Y-113505380D02*
X152622000Y-112505380D01*
X152526761Y-112648238D01*
X152431523Y-112743476D01*
X152336285Y-112791095D01*
X152622000Y-115448714D02*
X152622000Y-114020142D01*
X157124142Y-103616761D02*
X157267000Y-103664380D01*
X157505095Y-103664380D01*
X157600333Y-103616761D01*
X157647952Y-103569142D01*
X157695571Y-103473904D01*
X157695571Y-103378666D01*
X157647952Y-103283428D01*
X157600333Y-103235809D01*
X157505095Y-103188190D01*
X157314619Y-103140571D01*
X157219380Y-103092952D01*
X157171761Y-103045333D01*
X157124142Y-102950095D01*
X157124142Y-102854857D01*
X157171761Y-102759619D01*
X157219380Y-102712000D01*
X157314619Y-102664380D01*
X157552714Y-102664380D01*
X157695571Y-102712000D01*
X158076523Y-103616761D02*
X158219380Y-103664380D01*
X158457476Y-103664380D01*
X158552714Y-103616761D01*
X158600333Y-103569142D01*
X158647952Y-103473904D01*
X158647952Y-103378666D01*
X158600333Y-103283428D01*
X158552714Y-103235809D01*
X158457476Y-103188190D01*
X158267000Y-103140571D01*
X158171761Y-103092952D01*
X158124142Y-103045333D01*
X158076523Y-102950095D01*
X158076523Y-102854857D01*
X158124142Y-102759619D01*
X158171761Y-102712000D01*
X158267000Y-102664380D01*
X158505095Y-102664380D01*
X158647952Y-102712000D01*
X158933666Y-102664380D02*
X159505095Y-102664380D01*
X159219380Y-103664380D02*
X159219380Y-102664380D01*
X154695571Y-104274380D02*
X155314619Y-104274380D01*
X154981285Y-104655333D01*
X155124142Y-104655333D01*
X155219380Y-104702952D01*
X155267000Y-104750571D01*
X155314619Y-104845809D01*
X155314619Y-105083904D01*
X155267000Y-105179142D01*
X155219380Y-105226761D01*
X155124142Y-105274380D01*
X154838428Y-105274380D01*
X154743190Y-105226761D01*
X154695571Y-105179142D01*
X155790809Y-105274380D02*
X155981285Y-105274380D01*
X156076523Y-105226761D01*
X156124142Y-105179142D01*
X156219380Y-105036285D01*
X156267000Y-104845809D01*
X156267000Y-104464857D01*
X156219380Y-104369619D01*
X156171761Y-104322000D01*
X156076523Y-104274380D01*
X155886047Y-104274380D01*
X155790809Y-104322000D01*
X155743190Y-104369619D01*
X155695571Y-104464857D01*
X155695571Y-104702952D01*
X155743190Y-104798190D01*
X155790809Y-104845809D01*
X155886047Y-104893428D01*
X156076523Y-104893428D01*
X156171761Y-104845809D01*
X156219380Y-104798190D01*
X156267000Y-104702952D01*
X156552714Y-104274380D02*
X156886047Y-105274380D01*
X157219380Y-104274380D01*
X157886047Y-104750571D02*
X157552714Y-104750571D01*
X157552714Y-105274380D02*
X157552714Y-104274380D01*
X158028904Y-104274380D01*
X158933666Y-105274380D02*
X158362238Y-105274380D01*
X158647952Y-105274380D02*
X158647952Y-104274380D01*
X158552714Y-104417238D01*
X158457476Y-104512476D01*
X158362238Y-104560095D01*
X159790809Y-104274380D02*
X159600333Y-104274380D01*
X159505095Y-104322000D01*
X159457476Y-104369619D01*
X159362238Y-104512476D01*
X159314619Y-104702952D01*
X159314619Y-105083904D01*
X159362238Y-105179142D01*
X159409857Y-105226761D01*
X159505095Y-105274380D01*
X159695571Y-105274380D01*
X159790809Y-105226761D01*
X159838428Y-105179142D01*
X159886047Y-105083904D01*
X159886047Y-104845809D01*
X159838428Y-104750571D01*
X159790809Y-104702952D01*
X159695571Y-104655333D01*
X159505095Y-104655333D01*
X159409857Y-104702952D01*
X159362238Y-104750571D01*
X159314619Y-104845809D01*
X160457476Y-104702952D02*
X160362238Y-104655333D01*
X160314619Y-104607714D01*
X160267000Y-104512476D01*
X160267000Y-104464857D01*
X160314619Y-104369619D01*
X160362238Y-104322000D01*
X160457476Y-104274380D01*
X160647952Y-104274380D01*
X160743190Y-104322000D01*
X160790809Y-104369619D01*
X160838428Y-104464857D01*
X160838428Y-104512476D01*
X160790809Y-104607714D01*
X160743190Y-104655333D01*
X160647952Y-104702952D01*
X160457476Y-104702952D01*
X160362238Y-104750571D01*
X160314619Y-104798190D01*
X160267000Y-104893428D01*
X160267000Y-105083904D01*
X160314619Y-105179142D01*
X160362238Y-105226761D01*
X160457476Y-105274380D01*
X160647952Y-105274380D01*
X160743190Y-105226761D01*
X160790809Y-105179142D01*
X160838428Y-105083904D01*
X160838428Y-104893428D01*
X160790809Y-104798190D01*
X160743190Y-104750571D01*
X160647952Y-104702952D01*
X161790809Y-105274380D02*
X161219380Y-105274380D01*
X161505095Y-105274380D02*
X161505095Y-104274380D01*
X161409857Y-104417238D01*
X161314619Y-104512476D01*
X161219380Y-104560095D01*
D10*
X147652000Y-96031000D02*
X150066000Y-96031000D01*
X150066000Y-96031000D02*
X150066000Y-94861000D01*
X150066000Y-94861000D02*
X147652000Y-94861000D01*
X147652000Y-94861000D02*
X147652000Y-96031000D01*
X158203000Y-119326000D02*
X160617000Y-119326000D01*
X160617000Y-119326000D02*
X160617000Y-118156000D01*
X160617000Y-118156000D02*
X158203000Y-118156000D01*
X158203000Y-118156000D02*
X158203000Y-119326000D01*
X159164000Y-95386000D02*
X161578000Y-95386000D01*
X161578000Y-95386000D02*
X161578000Y-94216000D01*
X161578000Y-94216000D02*
X159164000Y-94216000D01*
X159164000Y-94216000D02*
X159164000Y-95386000D01*
X149054000Y-97694000D02*
X150224000Y-97694000D01*
X150224000Y-97694000D02*
X150224000Y-100108000D01*
X150224000Y-100108000D02*
X149054000Y-100108000D01*
X149054000Y-100108000D02*
X149054000Y-97694000D01*
X145017000Y-121949000D02*
X147653000Y-121949000D01*
X147653000Y-121949000D02*
X147653000Y-120619000D01*
X147653000Y-120619000D02*
X145017000Y-120619000D01*
X145017000Y-120619000D02*
X145017000Y-121949000D01*
X147647000Y-97421000D02*
X150061000Y-97421000D01*
X150061000Y-97421000D02*
X150061000Y-96251000D01*
X150061000Y-96251000D02*
X147647000Y-96251000D01*
X147647000Y-96251000D02*
X147647000Y-97421000D01*
X147632000Y-97691000D02*
X148802000Y-97691000D01*
X148802000Y-97691000D02*
X148802000Y-100105000D01*
X148802000Y-100105000D02*
X147632000Y-100105000D01*
X147632000Y-100105000D02*
X147632000Y-97691000D01*
D11*
%TO.C,C1*%
X143787333Y-121669142D02*
X143739714Y-121716761D01*
X143596857Y-121764380D01*
X143501619Y-121764380D01*
X143358761Y-121716761D01*
X143263523Y-121621523D01*
X143215904Y-121526285D01*
X143168285Y-121335809D01*
X143168285Y-121192952D01*
X143215904Y-121002476D01*
X143263523Y-120907238D01*
X143358761Y-120812000D01*
X143501619Y-120764380D01*
X143596857Y-120764380D01*
X143739714Y-120812000D01*
X143787333Y-120859619D01*
X144739714Y-121764380D02*
X144168285Y-121764380D01*
X144454000Y-121764380D02*
X144454000Y-120764380D01*
X144358761Y-120907238D01*
X144263523Y-121002476D01*
X144168285Y-121050095D01*
%TO.C,R2*%
X150939333Y-97360380D02*
X150606000Y-96884190D01*
X150367904Y-97360380D02*
X150367904Y-96360380D01*
X150748857Y-96360380D01*
X150844095Y-96408000D01*
X150891714Y-96455619D01*
X150939333Y-96550857D01*
X150939333Y-96693714D01*
X150891714Y-96788952D01*
X150844095Y-96836571D01*
X150748857Y-96884190D01*
X150367904Y-96884190D01*
X151320285Y-96455619D02*
X151367904Y-96408000D01*
X151463142Y-96360380D01*
X151701238Y-96360380D01*
X151796476Y-96408000D01*
X151844095Y-96455619D01*
X151891714Y-96550857D01*
X151891714Y-96646095D01*
X151844095Y-96788952D01*
X151272666Y-97360380D01*
X151891714Y-97360380D01*
%TO.C,C2*%
X150948333Y-95757142D02*
X150900714Y-95804761D01*
X150757857Y-95852380D01*
X150662619Y-95852380D01*
X150519761Y-95804761D01*
X150424523Y-95709523D01*
X150376904Y-95614285D01*
X150329285Y-95423809D01*
X150329285Y-95280952D01*
X150376904Y-95090476D01*
X150424523Y-94995238D01*
X150519761Y-94900000D01*
X150662619Y-94852380D01*
X150757857Y-94852380D01*
X150900714Y-94900000D01*
X150948333Y-94947619D01*
X151329285Y-94947619D02*
X151376904Y-94900000D01*
X151472142Y-94852380D01*
X151710238Y-94852380D01*
X151805476Y-94900000D01*
X151853095Y-94947619D01*
X151900714Y-95042857D01*
X151900714Y-95138095D01*
X151853095Y-95280952D01*
X151281666Y-95852380D01*
X151900714Y-95852380D01*
%TO.C,R3*%
X148703380Y-101254666D02*
X148227190Y-101588000D01*
X148703380Y-101826095D02*
X147703380Y-101826095D01*
X147703380Y-101445142D01*
X147751000Y-101349904D01*
X147798619Y-101302285D01*
X147893857Y-101254666D01*
X148036714Y-101254666D01*
X148131952Y-101302285D01*
X148179571Y-101349904D01*
X148227190Y-101445142D01*
X148227190Y-101826095D01*
X147703380Y-100921333D02*
X147703380Y-100302285D01*
X148084333Y-100635619D01*
X148084333Y-100492761D01*
X148131952Y-100397523D01*
X148179571Y-100349904D01*
X148274809Y-100302285D01*
X148512904Y-100302285D01*
X148608142Y-100349904D01*
X148655761Y-100397523D01*
X148703380Y-100492761D01*
X148703380Y-100778476D01*
X148655761Y-100873714D01*
X148608142Y-100921333D01*
%TO.C,C3*%
X158011333Y-95608142D02*
X157963714Y-95655761D01*
X157820857Y-95703380D01*
X157725619Y-95703380D01*
X157582761Y-95655761D01*
X157487523Y-95560523D01*
X157439904Y-95465285D01*
X157392285Y-95274809D01*
X157392285Y-95131952D01*
X157439904Y-94941476D01*
X157487523Y-94846238D01*
X157582761Y-94751000D01*
X157725619Y-94703380D01*
X157820857Y-94703380D01*
X157963714Y-94751000D01*
X158011333Y-94798619D01*
X158344666Y-94703380D02*
X158963714Y-94703380D01*
X158630380Y-95084333D01*
X158773238Y-95084333D01*
X158868476Y-95131952D01*
X158916095Y-95179571D01*
X158963714Y-95274809D01*
X158963714Y-95512904D01*
X158916095Y-95608142D01*
X158868476Y-95655761D01*
X158773238Y-95703380D01*
X158487523Y-95703380D01*
X158392285Y-95655761D01*
X158344666Y-95608142D01*
%TO.C,R4*%
X150126380Y-101254666D02*
X149650190Y-101588000D01*
X150126380Y-101826095D02*
X149126380Y-101826095D01*
X149126380Y-101445142D01*
X149174000Y-101349904D01*
X149221619Y-101302285D01*
X149316857Y-101254666D01*
X149459714Y-101254666D01*
X149554952Y-101302285D01*
X149602571Y-101349904D01*
X149650190Y-101445142D01*
X149650190Y-101826095D01*
X149459714Y-100397523D02*
X150126380Y-100397523D01*
X149078761Y-100635619D02*
X149793047Y-100873714D01*
X149793047Y-100254666D01*
%TO.C,R1*%
X157050333Y-119328380D02*
X156717000Y-118852190D01*
X156478904Y-119328380D02*
X156478904Y-118328380D01*
X156859857Y-118328380D01*
X156955095Y-118376000D01*
X157002714Y-118423619D01*
X157050333Y-118518857D01*
X157050333Y-118661714D01*
X157002714Y-118756952D01*
X156955095Y-118804571D01*
X156859857Y-118852190D01*
X156478904Y-118852190D01*
X158002714Y-119328380D02*
X157431285Y-119328380D01*
X157717000Y-119328380D02*
X157717000Y-118328380D01*
X157621761Y-118471238D01*
X157526523Y-118566476D01*
X157431285Y-118614095D01*
%TD*%
M02*
